<svg
    xmlns="http://www.w3.org/2000/svg"
    xmlns:xlink="http://www.w3.org/1999/xlink"
    version="1.1"
    x="0px"
    y="0px"
    viewBox="0 0 140 175"
    enable-background="new 0 0 140 140"
    xml:space="preserve"
>
    <path
    d="M8.5684814,128.151001c0.1904297,0.190918,0.4462891,0.2929688,0.7070313,0.2929688  c0.1069336,0,0.2148438-0.0170898,0.3198242-0.0522461l33.3037109-11.2338867  c0.0216064-0.0073242,0.036438-0.0269775,0.0574341-0.0357056c0.1134644-0.0431519,0.2147827-0.1090088,0.3062134-0.1903687  c0.0067749-0.0064087,0.0169678-0.0080566,0.0235596-0.0146484l71.8671265-71.8674927  c0.0149536-0.0159912,0.0319214-0.0289307,0.0458984-0.0459595l5.7203979-5.7203979  c0.0150757-0.0161133,0.0322266-0.0291138,0.0462646-0.0462646l8.0756836-8.0757446  c1.7299805-1.7294922,2.6831055-4.0297852,2.6831055-6.4760742s-0.953125-4.746582-2.6831055-6.4765625l-10.53125-10.53125  c-3.5712891-3.5712891-9.3818359-3.5712891-12.9521484,0l-8.126709,8.126709  c-0.0174561,0.0165405-0.0338135,0.0322876-0.0499268,0.0499268l-5.7191772,5.7191772  c-0.0159912,0.0152588-0.0310669,0.0297241-0.0458984,0.0458984L19.8674927,93.368103  c-0.0152588,0.0134277-0.02771,0.027771-0.0420532,0.0420532l-0.0230713,0.0230713  c-0.0159302,0.0159302-0.0204468,0.0397339-0.0352173,0.0566406c-0.0656738,0.0801392-0.1229858,0.1633301-0.1610718,0.2590942  c-0.0112915,0.0259399-0.0353394,0.0446167-0.0444336,0.0714722L8.3277588,127.1241455  C8.206665,127.4844971,8.2994385,127.8824463,8.5684814,128.151001z M20.2559814,98.0198975  c0.2036743,0.4353027,0.4978638,0.8814087,0.9458008,1.3293457c1.28125,1.28125,2.5507813,1.3544922,3.5712891,1.4130859  c0.8837891,0.0512695,1.5229492,0.0878906,2.2583008,0.8232422c0.7416992,0.7416992,0.7797852,1.3833008,0.831543,2.2714844  c0.0600586,1.0195313,0.1347656,2.2880859,1.4140625,3.5673828s2.5483398,1.3540039,3.5678711,1.4140625  c0.8876953,0.0522461,1.5292969,0.0898438,2.2709961,0.831543c0.7407227,0.7412109,0.7792969,1.3823242,0.8325195,2.2700195  c0.0610352,1.0214844,0.137207,2.2929688,1.421875,3.5771484c0.447937,0.4481201,0.894165,0.7424316,1.3295898,0.946228  l-18.4971313,6.2391968l-6.18573-6.1861572L20.2559814,98.0198975z M92.0041504,24.0595703l0.7518311,1.7979736  c0.1010742,0.2426758,0.2939453,0.4350586,0.5361328,0.5366211l4.8051147,2.0112915L27.2211304,99.2815552  c-0.8414917-0.4204712-1.6446533-0.4761353-2.3328247-0.5158081c-0.8881836-0.0512695-1.5297852-0.0883789-2.2724609-0.8305664  c-0.7412109-0.7416992-0.7792969-1.3837891-0.8325195-2.2729492c-0.0227661-0.3822632-0.0527954-0.8010254-0.1417847-1.2400513  L92.0041504,24.0595703z M97.7705078,18.2932129l0.7515869,1.7977295c0.1015625,0.2421875,0.2944336,0.4350586,0.5366211,0.5366211  l5.8022461,2.4287109l2.4375,5.8110352c0.1015625,0.2416992,0.2939453,0.434082,0.5356445,0.5356445l5.8110352,2.4379883  l2.4379883,5.8115234c0.1015625,0.2416992,0.2939453,0.434082,0.5351563,0.5351563l1.8093872,0.7595215l-4.2389526,4.2390137  l-2.1856689-0.9174805l-2.4379883-5.8120117c-0.0691528-0.1646118-0.190918-0.2925415-0.3312378-0.3983154  c-0.0276489-0.0365601-0.041687-0.0795898-0.0750122-0.112915c-0.2064209-0.2064209-0.4796143-0.2963867-0.7498169-0.284668  l-5.1906128-2.1772461l-2.4379883-5.8115234c-0.1015625-0.2421875-0.2944336-0.4345703-0.5361328-0.5356445l-0.0091553-0.0038452  c-0.0006104-0.0002441-0.0012207-0.0004883-0.00177-0.0007324l-5.7908325-2.4241333l-0.9100952-2.1763306L97.7705078,18.2932129z   M42.2973022,115.0779419c-0.4390259-0.0889893-0.8577881-0.1190186-1.2400513-0.1417847  c-0.8891602-0.0532227-1.53125-0.0913086-2.2729492-0.8330078c-0.7475586-0.7475586-0.7861328-1.3916016-0.8393555-2.2827148  c-0.0454712-0.7592163-0.1008911-1.6566162-0.6538696-2.5932007l70.8925171-70.8925171l2.1329346,5.0843506  c0.1015625,0.2416992,0.2939453,0.434082,0.5351563,0.5351563l1.8094482,0.7595215L42.2973022,115.0779419z M99.512085,29.8187256  l2.0197754,4.8156738c0.1015625,0.2416992,0.2939453,0.434082,0.5356445,0.5356445l4.5458374,1.9067993l-70.6755981,70.6755981  c-1.0736694-0.7901001-2.1140137-0.8597412-2.975708-0.9105225c-0.8876953-0.0522461-1.5292969-0.0898438-2.2709961-0.831543  s-0.7792969-1.3833008-0.831543-2.2709961c-0.0537109-0.9189453-0.128418-2.0408936-1.078064-3.1900024L99.512085,29.8187256z   M106.97229,9.0914307c2.7910156-2.7910156,7.3330078-2.7910156,10.1240234,0l10.53125,10.53125  c1.3520508,1.3525391,2.097168,3.1503906,2.097168,5.0625s-0.7451172,3.7099609-2.097168,5.0620117l-7.6723022,7.6723022  l-2.1856079-0.9174194l-2.4379883-5.8120117c-0.1015625-0.2416992-0.2939453-0.434082-0.5356445-0.5356445l-5.8110352-2.4379883  l-2.4379883-5.8110352c-0.1015625-0.2421875-0.2944336-0.4345703-0.5361328-0.5356445l-5.8012695-2.4287109l-0.9100952-2.1768188  L106.97229,9.0914307z M13.3035889,118.6313477l4.7843018,4.7846069l-7.2196045,2.4352417L13.3035889,118.6313477z"
    />
    <path
    d="M62.572876,133.3946533c4.8774414-1.9106445,10.25-1.9111328,15.2036133,0.0302734  c2.9838867,1.1743164,6.7407227,1.5761719,10.4897461,1.5761719c7.9042969,0,15.769043-1.7885742,16.25-1.8999023  c0.5375977-0.1245117,0.8730469-0.6611328,0.7485352-1.1992188c-0.1245117-0.5385742-0.6650391-0.8754883-1.1992188-0.7490234  c-0.1679688,0.0385742-16.859375,3.8344727-25.6357422,0.3793945c-5.3481445-2.0957031-11.2382813-2.0947266-16.6655273,0.03125  c-8.6967773,3.4248047-25.3891602-0.3720703-25.5161133-0.4003906c-12.8457031-3.5493164-26.7094727,1.059082-27.293457,1.2568359  c-0.5229492,0.1772461-0.8032227,0.7446289-0.6264648,1.2680664c0.1772461,0.5234375,0.746582,0.8037109,1.2680664,0.6264648  c0.1376953-0.0458984,13.8793945-4.6044922,26.1601563-1.2133789  C36.4654541,133.2657471,53.2193604,137.0758057,62.572876,133.3946533z"
    />
</svg>